# Blender v2.79 (sub 0) OBJ File: 'kidsroom.blend'
# www.blender.org
mtllib kidsroom.mtl
o 平面.003
v -9.551193 0.000000 10.000000
v -9.551194 0.000000 -10.000000
v -9.551192 20.000000 10.000000
v -9.551193 20.000000 -10.000000
v -9.551193 -0.000001 9.999999
v 10.448807 0.000000 9.999999
v -9.551192 20.000000 10.000000
v 10.448807 20.000004 10.000000
v 10.448807 0.000000 10.000000
v 10.448807 0.000000 -10.000000
v 10.448807 20.000004 10.000000
v 10.448807 20.000004 -10.000000
v -9.551193 -0.000001 -10.000000
v 10.448807 0.000000 -10.000000
v -9.551192 20.000000 -9.999999
v 10.448807 20.000004 -10.000000
v -9.551192 -0.000001 10.000000
v 10.448807 0.000000 9.999999
v -9.551193 -0.000001 -9.999999
v 10.448807 0.000000 -10.000000
vt 0.000000 0.000000
vt 1.000000 0.000000
vt 1.000000 1.000000
vt 0.000000 1.000000
vt 0.000000 0.000000
vt 1.000000 0.000000
vt 1.000000 1.000000
vt 0.000000 1.000000
vt 0.000000 0.000000
vt 1.000000 0.000000
vt 1.000000 1.000000
vt 0.000000 1.000000
vt 0.000000 0.000000
vt 1.000000 0.000000
vt 1.000000 1.000000
vt 0.000000 1.000000
vt 0.000000 0.000000
vt 1.000000 0.000000
vt 1.000000 1.000000
vt 0.000000 1.000000
vn 1.0000 0.0000 -0.0000
vn -0.0000 -0.0000 1.0000
vn -0.0000 1.0000 0.0000
usemtl マテリアル
s off
f 1/1/1 2/2/1 4/3/1 3/4/1
f 5/5/2 6/6/2 8/7/2 7/8/2
f 9/9/1 10/10/1 12/11/1 11/12/1
f 13/13/2 14/14/2 16/15/2 15/16/2
usemtl マテリアル_wood_floor.jpg
f 17/17/3 18/18/3 20/19/3 19/20/3
