# Blender v2.79 (sub 0) OBJ File: ''
# www.blender.org
mtllib stand.mtl
o 円柱
v 0.002385 -0.212238 -0.992077
v 0.002385 0.287762 -0.992077
v 0.197475 -0.212238 -0.972862
v 0.197475 0.287762 -0.972862
v 0.385069 -0.212238 -0.915956
v 0.385069 0.287762 -0.915956
v 0.557955 -0.212238 -0.823546
v 0.557955 0.287762 -0.823546
v 0.709492 -0.212238 -0.699184
v 0.709492 0.287762 -0.699184
v 0.833855 -0.212238 -0.547647
v 0.833855 0.287762 -0.547647
v 0.926265 -0.212238 -0.374760
v 0.926265 0.287762 -0.374760
v 0.983170 -0.212238 -0.187167
v 0.983170 0.287762 -0.187167
v 1.002385 -0.212238 0.007923
v 1.002385 0.287762 0.007923
v 0.983170 -0.212238 0.203013
v 0.983170 0.287762 0.203013
v 0.926265 -0.212238 0.390606
v 0.926265 0.287762 0.390606
v 0.833855 -0.212238 0.563493
v 0.833855 0.287762 0.563493
v 0.709492 -0.212238 0.715030
v 0.709492 0.287762 0.715030
v 0.557955 -0.212238 0.839393
v 0.557955 0.287762 0.839393
v 0.385068 -0.212238 0.931803
v 0.385068 0.287762 0.931803
v 0.197475 -0.212238 0.988708
v 0.197475 0.287762 0.988708
v 0.002385 -0.212238 1.007923
v 0.002385 0.287762 1.007923
v -0.192706 -0.212238 0.988708
v -0.192706 0.287762 0.988708
v -0.380299 -0.212238 0.931802
v -0.380299 0.287762 0.931802
v -0.553186 -0.212238 0.839392
v -0.553186 0.287762 0.839392
v -0.704722 -0.212238 0.715029
v -0.704722 0.287762 0.715029
v -0.829085 -0.212238 0.563493
v -0.829085 0.287762 0.563493
v -0.921495 -0.212238 0.390606
v -0.921495 0.287762 0.390606
v -0.978400 -0.212238 0.203013
v -0.978400 0.287762 0.203013
v -0.997615 -0.212238 0.007922
v -0.997615 0.287762 0.007922
v -0.978400 -0.212238 -0.187168
v -0.978400 0.287762 -0.187168
v -0.921494 -0.212238 -0.374761
v -0.921494 0.287762 -0.374761
v -0.829084 -0.212238 -0.547648
v -0.829084 0.287762 -0.547648
v -0.704721 -0.212238 -0.699185
v -0.704721 0.287762 -0.699185
v -0.553184 -0.212238 -0.823547
v -0.553184 0.287762 -0.823547
v -0.380297 -0.212238 -0.915957
v -0.380297 0.287762 -0.915957
v -0.192704 -0.212238 -0.972862
v -0.192704 0.287762 -0.972862
vn 0.0980 0.0000 -0.9952
vn 0.2903 0.0000 -0.9569
vn 0.4714 0.0000 -0.8819
vn 0.6344 0.0000 -0.7730
vn 0.7730 0.0000 -0.6344
vn 0.8819 0.0000 -0.4714
vn 0.9569 0.0000 -0.2903
vn 0.9952 0.0000 -0.0980
vn 0.9952 0.0000 0.0980
vn 0.9569 0.0000 0.2903
vn 0.8819 0.0000 0.4714
vn 0.7730 0.0000 0.6344
vn 0.6344 0.0000 0.7730
vn 0.4714 0.0000 0.8819
vn 0.2903 0.0000 0.9569
vn 0.0980 0.0000 0.9952
vn -0.0980 0.0000 0.9952
vn -0.2903 0.0000 0.9569
vn -0.4714 0.0000 0.8819
vn -0.6344 0.0000 0.7730
vn -0.7730 0.0000 0.6344
vn -0.8819 0.0000 0.4714
vn -0.9569 0.0000 0.2903
vn -0.9952 0.0000 0.0980
vn -0.9952 0.0000 -0.0980
vn -0.9569 0.0000 -0.2903
vn -0.8819 0.0000 -0.4714
vn -0.7730 0.0000 -0.6344
vn -0.6344 0.0000 -0.7730
vn -0.4714 0.0000 -0.8819
vn 0.0000 1.0000 0.0000
vn -0.2903 0.0000 -0.9569
vn -0.0980 0.0000 -0.9952
vn 0.0000 -1.0000 0.0000
usemtl None
s off
f 1//1 2//1 4//1 3//1
f 3//2 4//2 6//2 5//2
f 5//3 6//3 8//3 7//3
f 7//4 8//4 10//4 9//4
f 9//5 10//5 12//5 11//5
f 11//6 12//6 14//6 13//6
f 13//7 14//7 16//7 15//7
f 15//8 16//8 18//8 17//8
f 17//9 18//9 20//9 19//9
f 19//10 20//10 22//10 21//10
f 21//11 22//11 24//11 23//11
f 23//12 24//12 26//12 25//12
f 25//13 26//13 28//13 27//13
f 27//14 28//14 30//14 29//14
f 29//15 30//15 32//15 31//15
f 31//16 32//16 34//16 33//16
f 33//17 34//17 36//17 35//17
f 35//18 36//18 38//18 37//18
f 37//19 38//19 40//19 39//19
f 39//20 40//20 42//20 41//20
f 41//21 42//21 44//21 43//21
f 43//22 44//22 46//22 45//22
f 45//23 46//23 48//23 47//23
f 47//24 48//24 50//24 49//24
f 49//25 50//25 52//25 51//25
f 51//26 52//26 54//26 53//26
f 53//27 54//27 56//27 55//27
f 55//28 56//28 58//28 57//28
f 57//29 58//29 60//29 59//29
f 59//30 60//30 62//30 61//30
f 4//31 2//31 64//31 62//31 60//31 58//31 56//31 54//31 52//31 50//31 48//31 46//31 44//31 42//31 40//31 38//31 36//31 34//31 32//31 30//31 28//31 26//31 24//31 22//31 20//31 18//31 16//31 14//31 12//31 10//31 8//31 6//31
f 61//32 62//32 64//32 63//32
f 63//33 64//33 2//33 1//33
f 1//34 3//34 5//34 7//34 9//34 11//34 13//34 15//34 17//34 19//34 21//34 23//34 25//34 27//34 29//34 31//34 33//34 35//34 37//34 39//34 41//34 43//34 45//34 47//34 49//34 51//34 53//34 55//34 57//34 59//34 61//34 63//34
o 円
v 0.002385 -0.010817 -0.992077
v -0.192705 -0.010817 -0.972862
v -0.380298 -0.010817 -0.915956
v -0.553185 -0.010817 -0.823546
v -0.704722 -0.010817 -0.699184
v -0.829085 -0.010817 -0.547647
v -0.921494 -0.010817 -0.374760
v -0.978400 -0.010817 -0.187167
v -0.997615 -0.010817 0.007923
v -0.978400 -0.010817 0.203013
v -0.921494 -0.010817 0.390606
v -0.829085 -0.010817 0.563493
v -0.704722 -0.010817 0.715030
v -0.553185 -0.010817 0.839393
v -0.380298 -0.010817 0.931803
v -0.192705 -0.010817 0.988708
v 0.002385 -0.010817 1.007923
v 0.197476 -0.010817 0.988708
v 0.385069 -0.010817 0.931802
v 0.557956 -0.010817 0.839392
v 0.709492 -0.010817 0.715029
v 0.833855 -0.010817 0.563493
v 0.926265 -0.010817 0.390606
v 0.983171 -0.010817 0.203013
v 1.002385 -0.010817 0.007922
v 0.983170 -0.010817 -0.187168
v 0.926264 -0.010817 -0.374761
v 0.833854 -0.010817 -0.547648
v 0.709491 -0.010817 -0.699185
v 0.557954 -0.010817 -0.823547
v 0.385067 -0.010817 -0.915957
v 0.197474 -0.010817 -0.972862
l 66 65
l 67 66
l 68 67
l 69 68
l 70 69
l 71 70
l 72 71
l 73 72
l 74 73
l 75 74
l 76 75
l 77 76
l 78 77
l 79 78
l 80 79
l 81 80
l 82 81
l 83 82
l 84 83
l 85 84
l 86 85
l 87 86
l 88 87
l 89 88
l 90 89
l 91 90
l 92 91
l 93 92
l 94 93
l 95 94
l 96 95
l 65 96
